<?xml version="1.0" standalone="no"?>
<!DOCTYPE svg PUBLIC "-//W3C//DTD SVG 20010904//EN"
 "http://www.w3.org/TR/2001/REC-SVG-20010904/DTD/svg10.dtd">
<svg version="1.0" xmlns="http://www.w3.org/2000/svg"
 width="260.000000pt" height="260.000000pt" viewBox="0 0 260.000000 260.000000"
 preserveAspectRatio="xMidYMid meet">
<metadata>
Created by potrace 1.14, written by Peter Selinger 2001-2017
</metadata>
<g transform="translate(0.000000,260.000000) scale(0.100000,-0.100000)"
fill="#000000" stroke="none">
<path d="M1260 2453 c0 -7 -7 -10 -17 -6 -12 5 -14 3 -8 -7 6 -10 4 -12 -11
-6 -15 6 -16 4 -7 -5 16 -16 -12 -45 -30 -32 -7 5 -18 8 -24 7 -7 -1 -18 -2
-24 -3 -5 0 -7 -5 -4 -11 3 -5 1 -10 -5 -10 -6 0 -8 -4 -5 -10 3 -5 -1 -10
-10 -10 -9 0 -14 -4 -11 -9 3 -5 -1 -12 -10 -15 -10 -4 -13 -2 -8 7 5 8 4 9
-4 2 -5 -5 -12 -19 -14 -30 -2 -10 -13 -22 -26 -25 -13 -3 -23 -8 -23 -12 2
-23 -1 -27 -16 -21 -11 4 -14 3 -9 -5 6 -10 -4 -16 -24 -14 -3 0 -6 -8 -6 -18
0 -10 3 -17 6 -15 3 2 6 -5 6 -16 0 -11 -5 -18 -13 -15 -7 3 -10 -1 -6 -9 3
-8 9 -13 13 -10 5 3 6 -4 3 -15 -3 -11 -10 -20 -15 -20 -5 0 -3 -6 5 -14 8 -9
12 -26 10 -39 -3 -14 1 -28 8 -32 8 -6 10 -4 4 6 -7 11 -5 11 10 -1 10 -8 20
-14 23 -12 10 5 10 -28 1 -34 -6 -3 -5 -12 3 -22 11 -13 11 -14 0 -8 -11 7
-11 4 -1 -13 8 -12 16 -16 20 -10 4 7 9 4 13 -6 3 -9 10 -14 15 -11 4 3 7 -5
6 -18 -2 -19 1 -23 20 -20 17 1 22 -2 18 -12 -3 -8 0 -14 6 -14 6 0 11 -7 11
-15 0 -8 7 -15 16 -15 9 0 12 5 8 13 -5 8 -4 9 3 2 6 -5 14 -21 18 -35 4 -17
3 -21 -3 -12 -7 11 -11 8 -15 -9 -5 -19 -8 -20 -21 -9 -9 7 -16 9 -16 5 0 -4
-7 -2 -16 5 -8 8 -14 9 -12 4 2 -5 -1 -10 -7 -11 -5 -1 -13 -12 -16 -25 -3
-15 -11 -22 -23 -20 -11 2 -15 -1 -11 -7 3 -6 -2 -11 -12 -11 -15 0 -16 -2 -3
-10 13 -8 12 -10 -3 -10 -10 0 -16 -4 -12 -9 3 -5 1 -12 -5 -16 -5 -3 -10 -1
-10 5 0 6 -5 8 -10 5 -6 -4 -8 -11 -5 -16 4 -5 1 -9 -5 -9 -6 0 -9 -4 -5 -9 3
-5 0 -13 -6 -17 -6 -3 -15 0 -20 7 -6 10 -9 8 -9 -9 0 -13 -4 -20 -10 -17 -6
4 -10 3 -9 -2 1 -4 1 -17 0 -28 -1 -16 -3 -17 -11 -5 -8 12 -10 12 -16 -3 -3
-9 -11 -14 -18 -10 -6 4 -6 0 2 -9 10 -13 10 -18 1 -24 -8 -5 -9 -3 -4 6 5 9
4 11 -4 6 -8 -5 -9 -12 -2 -20 12 -14 11 -57 -1 -50 -5 3 -6 11 -2 17 3 7 -4
1 -16 -13 -12 -14 -18 -19 -14 -11 4 9 3 12 -4 7 -6 -3 -9 -18 -6 -32 3 -19 1
-24 -8 -18 -10 6 -10 5 0 -8 9 -12 10 -18 2 -23 -8 -5 -8 -11 -1 -19 6 -7 8
-16 4 -19 -3 -4 0 -7 7 -7 9 0 7 -5 -6 -16 -10 -8 -14 -13 -8 -10 7 3 15 -1
18 -10 3 -8 2 -13 -3 -10 -5 3 -11 -4 -14 -15 -4 -15 -11 -20 -22 -15 -9 3
-14 2 -11 -3 3 -5 -1 -12 -10 -15 -12 -5 -13 -10 -5 -19 8 -10 7 -17 -2 -27
-9 -10 -9 -11 1 -6 6 4 12 3 12 -1 0 -5 -6 -15 -12 -22 -10 -11 -10 -13 0 -7
6 4 12 3 12 -3 0 -5 -6 -12 -12 -14 -10 -4 -10 -6 0 -6 6 -1 12 -8 12 -16 0
-8 -6 -15 -12 -15 -9 0 -9 -3 1 -9 12 -7 12 -13 3 -24 -7 -7 -8 -18 -4 -23 4
-4 0 -3 -9 4 -13 10 -18 8 -28 -14 -6 -15 -9 -34 -6 -44 3 -10 1 -21 -5 -25
-6 -3 -8 -10 -5 -15 3 -4 -5 -6 -17 -2 -17 4 -20 2 -15 -11 4 -10 2 -16 -6
-14 -7 1 -11 -6 -11 -15 1 -11 -5 -15 -17 -13 -17 4 -24 -6 -20 -28 1 -5 -3
-6 -9 -2 -5 3 -10 -1 -10 -10 0 -13 -4 -14 -21 -4 -15 8 -19 8 -15 0 9 -14 4
-14 -29 -1 -23 9 -26 8 -22 -4 4 -10 1 -13 -8 -9 -8 3 -13 9 -10 13 3 5 -5 6
-17 2 -14 -3 -19 -2 -14 6 4 7 3 12 -3 12 -5 0 -8 9 -6 21 4 17 2 19 -10 9
-12 -10 -15 -10 -15 1 0 9 -3 10 -8 4 -10 -14 -42 -15 -42 -2 0 6 -7 2 -16 -9
-8 -10 -13 -14 -10 -7 8 15 -10 27 -19 13 -4 -6 -12 -7 -18 -3 -17 10 -47 11
-47 1 0 -4 -5 -8 -11 -8 -5 0 -7 6 -3 13 5 8 2 8 -9 -2 -12 -9 -17 -10 -17 -2
0 7 -5 9 -10 6 -6 -4 -8 -11 -5 -16 4 -5 -2 -9 -12 -10 -10 0 -13 -3 -6 -6 18
-7 -8 -32 -25 -25 -8 3 -18 -1 -23 -9 -5 -8 -9 -9 -9 -3 0 7 -7 14 -14 17 -11
4 -13 1 -9 -10 5 -12 3 -14 -7 -8 -10 6 -12 3 -8 -13 4 -15 2 -19 -8 -15 -8 3
-17 -2 -20 -11 -5 -12 -10 -14 -19 -6 -9 8 -11 4 -8 -14 3 -13 -1 -27 -8 -31
-8 -6 -10 -4 -4 4 5 9 1 9 -14 -1 -17 -10 -21 -23 -21 -68 0 -30 4 -50 8 -45
13 19 45 8 48 -16 1 -5 2 -13 3 -19 0 -5 10 -10 22 -10 11 0 17 -4 14 -10 -3
-5 -1 -10 4 -10 6 0 11 -7 11 -15 0 -8 11 -17 25 -21 14 -3 25 -10 25 -16 0
-5 -4 -6 -10 -3 -6 3 -7 -1 -4 -9 3 -9 10 -13 15 -10 5 3 12 -2 15 -10 3 -9
13 -16 21 -16 10 0 13 -7 8 -22 -5 -18 -4 -20 5 -8 9 13 12 13 21 -3 9 -15 13
-16 26 -5 17 14 46 20 38 8 -3 -5 3 -14 12 -20 17 -11 17 -11 -1 -6 -15 5 -17
4 -7 -8 16 -19 71 -29 88 -15 11 9 12 8 7 -5 -3 -9 -1 -16 4 -16 6 0 14 -9 17
-20 3 -11 11 -20 16 -20 6 0 7 6 3 13 -4 6 2 4 13 -6 21 -18 22 -18 32 0 6 10
11 13 11 7 0 -6 16 -11 35 -11 22 0 32 4 28 11 -4 6 0 5 9 -1 8 -7 18 -10 21
-6 4 3 7 1 7 -6 0 -7 4 -10 9 -7 10 7 24 -22 16 -34 -3 -5 0 -12 6 -16 8 -4 9
-3 5 4 -4 7 -1 12 9 12 10 0 13 -5 9 -12 -5 -7 -3 -8 7 -3 18 12 81 13 96 2 6
-4 14 -3 19 4 5 8 3 9 -6 4 -9 -5 -11 -4 -6 3 9 15 12 15 30 -4 9 -8 16 -12
16 -7 0 5 11 10 25 11 14 1 25 -4 25 -10 0 -7 6 -4 13 7 11 14 16 15 22 5 6
-9 4 -11 -5 -5 -9 5 -11 4 -6 -4 4 -6 12 -8 18 -4 18 10 78 10 78 -1 0 -5 6
-2 13 8 12 16 14 16 26 2 11 -12 17 -14 27 -5 11 9 14 8 14 -2 0 -8 5 -6 13 6
11 14 16 15 22 5 6 -9 4 -11 -5 -5 -9 5 -11 4 -6 -3 5 -9 12 -8 27 1 16 10 21
9 28 -1 6 -11 10 -10 15 4 6 15 8 15 24 0 14 -12 21 -13 30 -4 9 9 12 9 12 -2
0 -10 4 -8 13 5 11 14 16 15 22 5 6 -9 4 -11 -5 -5 -9 5 -11 4 -6 -4 5 -8 12
-9 19 -3 17 13 77 13 77 -1 0 -6 6 -3 13 8 11 14 16 15 22 5 6 -9 4 -11 -5 -5
-9 5 -11 4 -6 -4 4 -6 13 -8 19 -4 16 10 80 10 94 0 6 -4 14 -3 19 4 5 8 3 9
-6 4 -9 -5 -11 -4 -6 3 9 15 12 15 30 -4 9 -8 16 -12 16 -7 0 5 11 10 25 11
14 1 25 -4 25 -10 0 -7 6 -4 13 7 11 14 16 15 22 5 6 -9 4 -11 -5 -5 -9 5 -11
4 -6 -4 4 -6 13 -8 19 -4 16 10 80 10 94 0 6 -4 14 -3 19 4 5 8 3 9 -6 4 -9
-5 -11 -4 -6 3 9 15 12 15 30 -4 9 -8 16 -12 16 -7 0 5 11 10 25 11 14 1 25
-4 25 -10 0 -7 6 -4 13 7 11 14 16 15 22 5 6 -9 4 -11 -5 -5 -9 5 -11 4 -6 -4
4 -6 12 -8 18 -4 19 11 78 10 78 -1 0 -6 5 -3 11 7 8 14 14 16 25 6 11 -9 14
-9 14 0 0 7 4 10 9 7 5 -4 7 2 5 11 -3 12 4 22 21 30 14 6 23 7 19 2 -3 -5 2
-9 10 -9 9 0 16 5 16 11 0 6 7 3 16 -5 17 -18 28 -21 19 -7 -3 5 -1 12 5 16 5
3 10 1 10 -4 0 -6 5 -11 11 -11 5 0 7 5 4 10 -6 9 8 15 29 11 5 -1 4 4 -2 12
-10 12 -7 16 19 21 20 4 38 1 47 -6 13 -11 14 -11 8 0 -6 9 1 11 28 8 20 -2
39 0 42 6 4 7 2 8 -4 4 -7 -4 -12 -3 -12 2 0 6 8 13 17 16 14 6 15 9 4 16 -10
6 -7 8 10 7 13 0 33 4 43 8 16 7 18 5 12 -11 -6 -17 -5 -16 13 3 12 12 20 28
19 35 -2 7 4 13 12 13 8 0 19 6 23 13 5 7 12 10 17 7 5 -3 7 4 5 16 -3 16 0
19 12 15 10 -4 14 -2 10 8 -4 10 -1 13 9 9 11 -4 15 0 12 12 -2 11 4 19 16 21
23 3 36 16 41 40 2 11 4 21 4 23 1 2 7 -2 15 -8 10 -8 16 -9 21 -2 10 17 2
111 -9 110 -24 -3 -34 2 -40 17 -3 8 -2 12 4 9 5 -3 7 0 4 8 -3 9 -14 12 -30
9 -14 -2 -24 0 -24 7 0 7 6 9 13 6 6 -4 4 0 -7 9 -10 8 -15 20 -11 27 6 9 1
10 -19 7 -14 -3 -29 -1 -32 4 -4 6 -10 5 -15 -3 -9 -15 -8 -16 -29 26 -17 33
-44 39 -74 15 -11 -8 -16 -10 -13 -3 9 15 -9 27 -19 12 -4 -8 -9 -7 -15 2 -6
10 -9 11 -9 2 0 -7 -5 -13 -11 -13 -5 0 -7 5 -3 11 4 8 0 8 -15 0 -16 -9 -21
-9 -21 1 0 6 -7 3 -16 -8 -8 -10 -13 -14 -10 -7 8 15 -11 27 -20 12 -4 -8 -9
-7 -15 2 -7 11 -9 9 -10 -6 -1 -11 -1 -24 0 -28 1 -5 -3 -6 -9 -2 -9 6 -14 -7
-11 -30 1 -5 -6 -1 -14 9 -8 11 -15 15 -15 9 0 -7 -11 -10 -26 -7 -14 3 -32 0
-39 -6 -9 -8 -15 -8 -20 0 -3 6 -10 8 -14 5 -5 -2 -7 7 -5 21 2 22 0 23 -14
12 -12 -10 -14 -10 -8 0 4 7 2 12 -4 12 -6 0 -8 5 -4 12 5 9 2 8 -9 -1 -15
-12 -17 -12 -11 3 3 9 1 16 -5 16 -6 0 -8 7 -5 15 4 11 2 13 -9 9 -8 -3 -18 0
-22 5 -3 6 -10 9 -14 7 -12 -8 -11 37 2 53 9 12 9 13 0 7 -7 -4 -13 -2 -13 3
0 6 5 11 10 11 6 0 10 4 10 8 0 5 -10 8 -22 7 -30 -3 -48 12 -41 32 5 12 3 14
-8 8 -8 -5 -5 2 6 15 11 13 14 20 7 16 -14 -8 -12 19 2 43 6 9 5 12 -1 8 -6
-4 -14 0 -17 9 -3 8 -2 12 3 9 5 -3 12 -1 16 5 3 5 2 10 -4 10 -11 0 -9 19 3
39 7 10 4 12 -13 6 -16 -5 -20 -3 -15 9 5 12 2 15 -10 10 -15 -6 -22 10 -17
39 0 4 -4 7 -11 7 -6 0 -3 7 8 16 10 8 14 13 8 10 -15 -8 -26 21 -12 30 7 5 8
2 3 -7 -5 -8 -4 -10 0 -6 12 11 15 38 4 31 -5 -3 -7 5 -5 18 2 13 -1 29 -7 36
-7 9 -6 11 4 9 8 -2 11 -2 6 0 -4 3 -4 10 0 16 4 7 -1 6 -11 -2 -15 -12 -19
-12 -34 4 -9 10 -11 15 -4 11 6 -4 12 -2 12 3 0 6 -6 11 -14 11 -15 0 -16 24
-1 37 4 4 5 2 0 -6 -5 -9 -4 -12 3 -7 9 5 8 12 0 26 -7 11 -14 17 -17 15 -2
-3 -17 9 -33 25 -15 17 -33 30 -39 30 -5 0 -7 5 -4 10 3 6 1 10 -5 10 -6 0 -8
4 -5 10 3 6 -1 7 -10 4 -11 -5 -14 -2 -8 12 5 13 3 16 -10 11 -10 -4 -17 -2
-17 5 0 6 -8 17 -17 25 -10 8 -12 11 -4 7 9 -4 12 -3 7 4 -4 6 -14 8 -23 5
-11 -4 -14 -3 -9 5 4 7 2 12 -4 12 -7 0 -10 7 -7 15 7 17 -9 30 -18 15 -4 -6
-11 -8 -16 -4 -5 3 -6 11 -2 17 4 7 0 6 -10 -2 -9 -7 -17 -10 -17 -6 0 4 -8 1
-17 -6 -11 -10 -14 -10 -9 -1 4 7 2 12 -4 12 -6 0 -10 10 -8 23 2 15 9 21 22
19 11 -2 15 1 11 7 -3 6 -1 11 5 11 7 0 10 7 7 14 -4 10 -1 13 7 10 7 -3 24 5
37 16 13 12 19 19 14 16 -6 -2 -11 3 -11 13 0 10 6 18 13 18 7 0 10 -4 7 -9
-3 -4 2 -5 10 -2 9 3 13 11 9 17 -4 6 0 8 9 5 11 -5 14 0 11 20 -4 21 -2 24 6
12 10 -14 16 -7 12 14 -1 5 6 3 16 -4 10 -8 15 -10 11 -6 -4 5 -3 15 3 22 16
19 20 67 5 54 -9 -7 -11 -1 -9 23 2 18 4 47 3 65 -1 25 3 32 12 26 10 -6 9 -4
-1 9 -7 9 -11 24 -7 32 3 9 0 15 -10 15 -9 0 -12 5 -8 12 5 8 2 9 -9 5 -9 -3
-19 -1 -23 5 -5 7 -2 8 7 4 8 -4 6 -1 -4 7 -10 9 -18 18 -18 21 2 18 0 19 -9
6 -8 -13 -10 -12 -10 3 0 9 -4 17 -9 17 -5 0 -11 10 -14 21 -3 13 -11 19 -19
17 -20 -8 -39 17 -25 32 9 10 9 11 0 6 -6 -3 -18 1 -26 9 -17 16 -32 20 -23 6
3 -5 -5 -8 -19 -8 -14 0 -22 3 -19 8 3 5 -2 9 -10 9 -9 0 -15 3 -15 8 3 19 -2
30 -17 36 -8 3 -12 2 -9 -4 3 -6 1 -10 -4 -10 -6 0 -11 6 -11 13 0 7 -3 8 -8
2 -4 -5 -16 -10 -27 -10 -11 0 -23 5 -27 10 -5 6 -8 5 -8 -2z m65 -180 c3 -13
10 -23 16 -23 6 0 7 -6 3 -12 -5 -9 -2 -9 9 1 14 11 17 11 17 0 0 -9 3 -10 8
-4 9 12 44 16 36 4 -3 -5 3 -9 13 -10 10 0 13 -3 6 -6 -7 -2 -13 -14 -13 -24
0 -12 4 -17 11 -13 8 4 8 1 1 -13 -9 -15 -6 -22 10 -32 11 -7 17 -8 13 -2 -3
6 -2 11 2 11 5 0 14 -9 21 -21 10 -16 10 -19 1 -13 -9 5 -10 2 -6 -9 5 -13 1
-17 -19 -17 -14 0 -22 -4 -19 -10 3 -5 1 -10 -6 -10 -8 0 -7 -5 2 -17 9 -11
10 -14 2 -9 -10 5 -11 -1 -6 -25 4 -23 3 -30 -5 -25 -7 4 -12 3 -12 -2 0 -5
-9 -12 -21 -15 -12 -3 -18 -10 -15 -15 3 -6 -6 -13 -20 -16 -19 -5 -25 -12
-21 -26 3 -14 1 -17 -11 -13 -11 5 -14 2 -9 -10 4 -10 2 -16 -6 -14 -16 3 -37
23 -37 36 0 6 -5 11 -11 11 -5 0 -8 4 -5 9 3 5 0 8 -7 7 -6 0 -12 2 -12 5 0 9
-33 39 -43 39 -5 0 -16 8 -23 17 -8 9 -9 14 -3 10 8 -5 11 4 8 26 -1 17 -3 36
-3 41 -1 5 -4 6 -8 3 -3 -4 -12 1 -20 11 -8 9 -12 11 -8 5 3 -7 1 -13 -5 -13
-7 0 -9 8 -5 20 4 13 2 20 -7 20 -8 0 -9 3 -3 8 6 4 10 16 9 27 -1 30 6 37 22
24 11 -9 14 -8 14 5 0 10 4 15 9 11 6 -3 8 4 6 16 -2 12 -2 19 2 16 3 -4 14
-2 24 4 14 7 19 6 20 -3 0 -11 2 -11 6 0 4 9 8 10 18 2 10 -8 15 -8 21 1 5 8
3 10 -7 5 -8 -4 -6 -1 3 7 10 8 15 17 11 20 -3 4 -1 7 6 7 7 0 10 4 7 8 -2 4
4 8 14 8 11 0 21 -10 25 -23z m-211 -689 c14 -5 14 -9 4 -22 -10 -12 -10 -14
0 -8 16 10 15 -2 -2 -19 -7 -8 -16 -11 -19 -8 -3 3 -13 -1 -21 -10 -8 -8 -12
-17 -9 -21 10 -10 11 -46 1 -46 -4 0 -8 -5 -8 -11 0 -5 4 -8 8 -5 4 2 8 -4 8
-15 0 -10 -4 -19 -9 -19 -4 0 -5 -5 -1 -12 5 -8 2 -9 -11 -4 -15 5 -16 4 -6
-8 10 -12 9 -14 -7 -9 -11 2 -23 -1 -27 -8 -6 -8 -4 -10 6 -4 12 8 12 6 0 -8
-11 -14 -11 -17 0 -17 11 0 11 -2 -1 -10 -8 -5 -10 -10 -4 -10 7 0 15 -7 18
-16 3 -8 2 -13 -3 -10 -5 3 -11 -3 -14 -14 -3 -11 -1 -20 5 -20 5 0 6 -5 3
-11 -4 -6 -14 -8 -22 -5 -8 3 -11 1 -8 -4 3 -6 -1 -10 -9 -10 -10 0 -13 6 -9
17 4 10 2 14 -5 9 -7 -4 -9 3 -6 21 3 15 7 29 9 32 2 2 0 12 -6 22 -7 14 -6
19 3 20 10 0 10 2 1 6 -10 3 -10 10 -2 25 6 11 7 18 1 15 -5 -4 -7 4 -4 18 2
14 8 28 13 31 5 3 6 -3 3 -13 -5 -17 -5 -17 9 -1 8 10 16 15 19 12 3 -2 8 4
11 16 3 11 1 20 -4 20 -5 0 -9 5 -9 11 0 5 6 7 13 3 9 -6 9 -5 -1 8 -10 12 -9
18 3 28 8 7 22 10 30 6 10 -3 13 -2 10 5 -4 5 -1 16 5 24 7 8 9 15 4 15 -5 0
-2 5 6 10 18 12 15 11 34 4z m202 -12 c5 1 10 -14 12 -36 3 -29 0 -36 -10 -31
-7 4 -2 -2 12 -13 13 -11 28 -18 32 -16 4 3 8 -6 8 -20 0 -14 6 -26 13 -26 8
0 7 -4 -3 -10 -8 -5 -11 -10 -7 -10 4 0 2 -10 -4 -22 -11 -21 -11 -22 4 -9 19
15 24 2 6 -16 -8 -8 -5 -17 10 -32 12 -12 21 -16 21 -9 0 6 3 8 7 4 4 -4 8
-29 9 -56 1 -27 6 -54 10 -61 4 -8 3 -9 -4 -5 -7 4 -12 3 -12 -3 0 -5 5 -13
10 -16 6 -4 7 -11 4 -17 -4 -7 0 -7 12 0 16 8 21 6 30 -13 6 -13 8 -29 3 -36
-5 -8 -3 -17 4 -21 9 -6 8 -8 -2 -8 -11 0 -11 -3 0 -17 12 -15 12 -16 -4 -10
-16 6 -16 5 0 -20 10 -15 13 -24 7 -21 -7 5 -11 -4 -11 -22 0 -16 3 -27 7 -25
3 2 6 -5 6 -15 0 -10 -4 -16 -9 -13 -5 3 -6 -5 -2 -18 6 -19 5 -22 -6 -12 -10
10 -15 9 -26 -5 -8 -9 -11 -11 -7 -3 4 8 3 12 -3 8 -5 -3 -9 -16 -8 -29 1 -13
-3 -26 -9 -30 -7 -5 -4 -8 7 -8 14 0 16 -4 8 -18 -6 -11 -7 -23 -2 -28 4 -5
-4 -20 -17 -34 -14 -14 -21 -18 -17 -10 7 12 6 13 -6 3 -9 -7 -14 -27 -13 -52
0 -23 -3 -42 -8 -42 -4 -1 -17 -2 -27 -3 -11 0 -22 -4 -26 -8 -4 -4 -17 -3
-30 2 -15 6 -27 4 -35 -3 -10 -9 -11 -9 -5 2 6 10 4 13 -6 9 -12 -4 -14 3 -12
38 2 25 -2 44 -8 44 -5 0 -7 5 -3 11 4 7 1 10 -7 7 -17 -6 -43 18 -34 32 3 5
0 10 -7 10 -8 1 -6 6 6 15 18 14 15 19 -9 16 -5 -1 -1 6 9 14 11 8 14 15 8 15
-7 0 -11 3 -11 8 3 19 -2 32 -14 32 -7 0 -20 9 -30 20 -9 11 -12 20 -6 20 8 0
7 5 -1 15 -9 10 -9 15 -1 15 13 0 10 22 -4 32 -6 5 -6 8 1 8 6 0 11 7 11 15 0
8 -4 15 -9 15 -5 0 -6 5 -3 10 4 6 11 8 16 5 5 -3 6 1 3 9 -3 9 -11 16 -18 16
-7 0 -6 4 2 9 17 11 17 21 0 32 -10 7 -10 9 0 9 6 0 11 6 10 13 -2 8 8 11 27
10 17 0 24 1 18 4 -7 2 -13 9 -13 14 0 6 6 7 13 3 7 -5 6 0 -3 11 -9 11 -10
16 -3 11 10 -5 12 3 8 35 -3 23 -7 45 -9 48 -3 3 2 15 10 26 8 10 14 14 14 9
0 -6 -3 -14 -7 -20 -5 -5 2 1 15 14 14 13 20 27 16 35 -6 8 -3 8 9 -1 15 -12
15 -11 7 19 -5 18 -8 35 -5 37 3 3 -1 12 -8 20 -8 10 -8 13 -1 9 12 -7 29 21
19 31 -3 3 -5 0 -5 -7 0 -7 -5 -9 -11 -5 -16 9 9 23 33 19 10 -2 16 0 13 6 -4
5 -1 9 6 9 8 0 8 4 1 13 -7 8 -7 18 -2 27 5 8 6 18 3 22 -2 5 1 16 8 24 9 11
14 12 19 4 4 -7 11 -10 16 -8z m200 5 c10 4 14 -3 14 -22 0 -17 -4 -24 -12
-19 -7 4 -8 3 -4 -4 11 -19 -5 -14 -20 6 -13 16 -14 16 -8 -3 4 -14 3 -16 -3
-7 -8 10 -9 32 -4 62 1 2 6 -1 12 -7 6 -6 18 -9 25 -6z m66 -55 c5 8 7 3 4
-16 -3 -16 -7 -31 -10 -34 -9 -8 36 -63 48 -59 6 3 12 -3 12 -13 0 -10 -5 -16
-10 -13 -5 4 -6 1 0 -8 5 -8 8 -33 6 -57 -1 -32 1 -41 11 -36 9 6 9 4 -1 -8
-7 -9 -11 -21 -10 -28 2 -6 -8 -19 -22 -28 -13 -9 -21 -11 -16 -4 4 6 3 12 -2
12 -15 0 -21 37 -9 49 8 8 7 11 -3 11 -13 0 -13 2 0 10 12 8 12 10 1 10 -11 0
-11 3 -1 15 10 12 10 15 0 15 -9 0 -9 4 1 17 10 11 10 14 2 9 -7 -4 -13 -3
-13 3 0 6 -7 7 -17 4 -11 -4 -14 -3 -9 5 4 8 0 12 -11 13 -12 0 -14 2 -4 6 11
5 11 7 0 14 -10 6 -10 9 -2 9 8 0 10 7 6 17 -9 22 -8 64 0 87 6 16 8 16 23 1
14 -13 19 -14 26 -3z m-621 -357 c18 0 19 -32 3 -46 -13 -10 -12 -14 2 -30 12
-13 13 -19 4 -19 -10 0 -10 -3 0 -15 9 -11 9 -15 1 -15 -8 0 -9 -5 -1 -19 13
-25 13 -34 0 -26 -6 3 -7 -1 -4 -9 9 -23 10 -105 2 -99 -5 2 -8 -1 -8 -6 0 -6
6 -11 13 -12 6 0 3 -4 -8 -9 -11 -5 -14 -9 -6 -9 8 -1 11 -8 8 -21 -4 -17 -2
-18 15 -9 15 8 19 8 14 0 -4 -6 0 -11 9 -11 9 0 14 -4 11 -9 -4 -5 0 -12 6
-15 10 -5 10 -7 1 -12 -7 -3 -13 -10 -13 -15 0 -6 4 -7 10 -4 6 3 7 -1 4 -9
-3 -9 -10 -16 -16 -16 -5 0 -6 -4 -3 -10 4 -6 -6 -8 -24 -6 -17 2 -31 -1 -31
-5 0 -5 -4 -9 -10 -9 -5 0 -7 7 -4 15 4 9 0 15 -9 15 -8 0 -14 8 -13 18 1 18
-27 24 -55 10 -11 -5 -21 -2 -29 7 -7 8 -9 15 -4 15 5 0 1 5 -9 11 -9 6 -15
14 -12 19 3 4 -3 6 -14 3 -14 -3 -20 2 -23 21 -6 31 1 40 19 24 11 -9 12 -7 7
7 -5 13 -4 16 4 11 7 -4 12 -1 12 6 0 20 38 50 44 35 2 -7 5 -4 5 6 1 10 5 16
10 13 13 -8 0 37 -13 46 -7 5 -4 8 7 8 9 0 17 4 17 9 0 5 11 19 24 32 14 13
21 28 18 34 -13 19 -8 80 8 93 8 8 9 11 3 7 -9 -4 -11 -1 -6 10 5 13 7 14 14
3 5 -7 14 -13 20 -13z m716 -17 c-4 -14 -2 -18 9 -14 13 5 13 3 0 -16 -11 -16
-13 -25 -4 -35 7 -9 7 -13 0 -13 -6 0 -9 -7 -6 -15 4 -8 10 -12 15 -9 5 3 6
-2 2 -12 -5 -13 -2 -15 18 -9 16 4 20 3 11 -3 -11 -8 -11 -10 1 -15 15 -6 16
-34 2 -56 -5 -10 -4 -12 3 -7 8 5 12 -1 13 -16 0 -13 3 -18 5 -11 4 8 11 7 23
-5 10 -9 16 -20 14 -24 -2 -5 3 -8 11 -8 9 0 16 -7 16 -15 0 -8 5 -15 11 -15
5 0 7 6 3 13 -4 7 -3 9 2 4 14 -13 12 -54 -3 -54 -7 0 -13 5 -13 11 0 6 -4 4
-9 -4 -6 -8 -8 -17 -6 -20 3 -5 -14 -23 -30 -31 -5 -2 -9 -8 -7 -14 2 -5 -5
-2 -15 7 -15 13 -22 14 -39 5 -12 -7 -20 -20 -19 -29 2 -9 -4 -23 -13 -30 -10
-8 -13 -9 -9 -1 4 6 3 14 -2 17 -5 3 -12 -1 -15 -10 -6 -15 -9 -15 -28 2 -12
11 -18 13 -14 7 4 -7 2 -13 -3 -13 -6 0 -11 9 -11 19 0 11 -6 21 -12 24 -9 3
-7 10 6 26 19 21 19 21 1 15 -13 -5 -16 -4 -11 4 4 7 14 12 22 12 8 0 14 6 14
13 0 8 4 7 10 -3 8 -12 10 -12 11 5 1 11 0 33 -1 49 -1 20 2 26 11 20 7 -4 5
3 -4 16 -9 13 -13 30 -9 39 9 21 8 53 -1 69 -5 7 -3 12 3 12 7 0 8 6 0 19 -7
14 -7 20 2 23 8 3 8 10 -2 27 -6 13 -8 26 -4 30 5 3 9 12 10 19 2 27 5 30 25
25 15 -4 19 -11 16 -25z m-697 -48 c0 -5 -2 -10 -4 -10 -3 0 -8 5 -11 10 -3 6
-1 10 4 10 6 0 11 -4 11 -10z m1404 -188 c3 -5 -1 -9 -9 -9 -8 0 -12 4 -9 9 3
4 7 8 9 8 2 0 6 -4 9 -8z m-158 -202 c17 7 23 7 19 0 -4 -6 2 -7 18 -1 16 6
28 6 36 -2 8 -8 11 -8 11 1 0 7 5 12 11 12 5 0 8 -3 6 -7 -3 -5 8 -8 23 -8 15
0 26 3 23 8 -2 4 0 7 5 7 5 0 12 -8 14 -17 6 -24 -2 -59 -11 -45 -8 14 -41
-10 -46 -35 -2 -10 -4 -19 -4 -21 -1 -2 -6 0 -13 4 -17 11 -78 12 -71 1 3 -5
-1 -13 -8 -18 -11 -7 -11 -9 -1 -9 7 0 11 -4 7 -10 -3 -5 -13 -6 -22 -3 -11 5
-14 3 -8 -6 6 -10 3 -11 -13 -2 -27 14 -35 14 -26 -1 5 -9 2 -9 -9 1 -14 11
-17 11 -18 0 0 -11 -2 -11 -6 -1 -4 10 -8 10 -19 1 -11 -9 -14 -9 -14 0 0 7
-5 9 -10 6 -6 -4 -8 -10 -5 -14 2 -5 -3 -17 -13 -27 -18 -21 -67 -21 -56 -1 3
7 -2 3 -10 -7 -12 -15 -16 -16 -16 -5 0 8 -3 10 -8 4 -7 -10 -16 -10 -74 -2
-16 2 -28 0 -28 -6 0 -5 -6 -5 -14 2 -11 9 -15 8 -20 -5 -4 -11 -10 -13 -19
-7 -21 17 -54 21 -54 7 0 -7 4 -11 9 -8 4 3 5 -2 2 -10 -3 -9 -11 -13 -17 -9
-6 4 -8 1 -5 -8 4 -10 -2 -14 -20 -16 -18 -1 -21 1 -11 8 20 12 2 11 -22 -1
-13 -8 -19 -7 -19 0 0 6 -5 8 -12 3 -22 -13 -36 -12 -42 4 -3 8 -11 11 -17 7
-7 -4 -9 -3 -6 3 3 5 7 26 9 47 1 25 6 35 15 32 7 -3 13 0 13 6 0 9 3 9 12 0
9 -9 15 -9 27 1 12 10 13 9 7 -1 -7 -11 -4 -11 12 -1 10 7 19 19 18 28 0 9 5
15 12 13 6 -1 12 3 12 9 0 8 6 7 17 -2 14 -12 16 -12 9 1 -4 8 0 6 8 -4 14
-17 16 -17 16 -3 0 9 9 21 20 27 11 6 20 15 20 21 0 6 -5 7 -12 3 -6 -4 -8 -3
-5 3 5 7 72 10 72 3 0 -7 36 -6 41 1 3 6 11 5 20 -2 11 -9 19 -8 35 7 17 16
19 16 13 1 -4 -12 -1 -17 11 -17 9 0 13 -4 10 -10 -3 -5 -1 -10 5 -10 6 0 8
-5 5 -10 -4 -6 3 -8 17 -6 13 3 26 5 30 5 4 1 5 10 3 21 -2 11 0 18 6 15 5 -4
9 -1 9 6 0 7 3 10 6 6 8 -7 34 17 34 32 0 5 5 13 12 17 7 5 9 2 4 -7 -4 -8 -1
-6 6 3 11 15 14 15 21 3 6 -11 14 -12 33 -5z m-1927 -4 c6 -4 11 -2 11 5 0 10
3 10 11 2 7 -7 21 -8 40 -3 20 6 29 5 29 -3 0 -7 4 -6 10 3 9 13 10 13 10 0 0
-9 3 -11 8 -5 12 18 37 11 34 -9 -2 -11 1 -15 7 -11 7 3 11 -2 11 -14 0 -23
15 -28 23 -8 3 6 6 2 6 -10 1 -13 6 -23 12 -23 5 0 8 -4 5 -8 -2 -4 7 -9 20
-10 15 -1 22 2 19 8 -3 6 -1 10 5 10 7 0 10 6 7 14 -4 10 1 13 19 11 17 -2 24
2 20 11 -3 8 0 11 10 7 7 -3 14 -10 14 -15 0 -6 7 -5 15 2 9 7 18 10 22 6 3
-3 0 -6 -7 -6 -7 0 -10 -3 -7 -7 4 -3 16 2 27 12 18 16 20 16 26 1 3 -9 10
-16 16 -16 5 0 7 3 5 8 -3 4 6 8 20 9 15 0 21 -2 16 -5 -11 -7 0 -52 12 -52 4
0 3 5 0 10 -3 6 -1 10 4 10 6 0 11 -8 11 -17 0 -10 4 -14 8 -8 12 17 53 11 65
-10 6 -11 17 -26 24 -33 11 -11 13 -11 14 0 0 10 2 10 6 0 4 -10 8 -10 21 0
12 10 14 10 8 1 -5 -9 -1 -13 12 -13 11 0 22 -7 26 -15 3 -8 0 -15 -7 -15 -8
0 -6 -4 3 -10 11 -7 11 -10 2 -10 -7 0 -10 -5 -7 -10 3 -6 -2 -18 -11 -27 -13
-13 -19 -14 -22 -5 -2 6 -8 12 -13 12 -6 0 -8 -4 -5 -8 2 -4 -4 -8 -14 -8 -10
0 -16 5 -13 10 4 5 0 7 -9 4 -11 -5 -14 1 -13 20 1 26 -1 27 -47 27 -26 0 -48
-4 -48 -8 0 -4 -9 -3 -19 3 -11 5 -22 6 -25 1 -7 -11 -59 -1 -68 13 -5 7 -8 4
-8 -6 0 -10 -5 -18 -11 -18 -5 0 -8 3 -6 8 3 4 -6 7 -19 7 -13 0 -24 -4 -24
-10 0 -5 -5 -3 -10 5 -5 8 -10 11 -10 5 0 -5 -11 -10 -24 -10 -19 0 -22 3 -14
13 8 9 7 11 -5 7 -8 -4 -18 -1 -23 6 -4 8 -3 10 4 5 7 -4 12 -2 12 3 0 6 -7
11 -16 11 -9 0 -12 5 -8 13 5 8 2 8 -9 -2 -9 -7 -17 -9 -17 -4 0 5 -9 9 -20
10 -13 1 -18 -2 -14 -10 5 -8 3 -8 -7 1 -16 15 -33 16 -23 1 4 -7 1 -10 -7 -7
-8 3 -13 11 -11 18 3 11 0 11 -12 0 -9 -7 -16 -11 -17 -9 0 2 -2 11 -4 21 -2
9 -8 24 -14 35 -8 14 -10 15 -11 3 0 -9 -9 -16 -19 -16 -11 0 -17 4 -14 9 3 5
-4 6 -17 2 -15 -5 -20 -4 -16 4 4 6 2 11 -4 11 -6 0 -8 5 -5 10 3 6 1 10 -5
10 -6 0 -8 5 -4 13 6 9 5 9 -8 -1 -12 -10 -17 -10 -25 0 -12 16 -13 49 -1 42
4 -3 8 -1 8 5 0 11 60 9 79 -3z"/>
<path d="M1845 1080 c3 -5 8 -10 11 -10 2 0 4 5 4 10 0 6 -5 10 -11 10 -5 0
-7 -4 -4 -10z"/>
</g>
</svg>
